<?xml version="1.0" encoding="UTF-8"?>
<svg width="22px" height="23px" viewBox="0 0 22 23" version="1.1" xmlns="http://www.w3.org/2000/svg" xmlns:xlink="http://www.w3.org/1999/xlink">
    <g id="action-2" stroke="none" stroke-width="1" fill="none" fill-rule="evenodd">
        <g id="6a-builder-1a" transform="translate(-21.000000, -19.000000)" fill="#FFFFFF" fill-rule="nonzero">
            <g id="cog" transform="translate(21.000000, 19.000000)">
                <path d="M21.7189993,14.2636992 L19.7452024,13.1229777 C19.9444355,12.0471754 19.9444355,10.9435505 19.7452024,9.8677481 L21.7189993,8.72702661 C21.9460323,8.59718839 22.0479655,8.32823779 21.9738323,8.07783551 C21.4595331,6.4270353 20.5838345,4.93389578 19.4394029,3.69115854 C19.2633365,3.50103829 18.9760703,3.4546675 18.7536707,3.58450572 L16.7798738,4.72522722 C15.9505084,4.01111701 14.9960433,3.45930458 13.9628115,3.0976124 L13.9628115,0.820806486 C13.9628115,0.561130048 13.7821118,0.333913165 13.5272789,0.278268214 C11.8268482,-0.101972284 10.0847177,-0.0834239675 8.46768687,0.278268214 C8.21285394,0.333913165 8.03215422,0.561130048 8.03215422,0.820806486 L8.03215422,3.10224948 C7.00355584,3.46857874 6.04909068,4.02039117 5.21509199,4.72986429 L3.24592842,3.5891428 C3.01889545,3.45930458 2.73626256,3.50103829 2.56019617,3.69579562 C1.41576464,4.93389578 0.540066017,6.4270353 0.0257668266,8.08247259 C-0.0529997161,8.33287487 0.0535667828,8.60182547 0.280599759,8.73166369 L2.25439665,9.87238518 C2.05516363,10.9481876 2.05516363,12.0518124 2.25439665,13.1276148 L0.280599759,14.2683363 C0.0535667828,14.3981745 -0.0483663901,14.6671251 0.0257668266,14.9175274 C0.540066017,16.5683276 1.41576464,18.0614671 2.56019617,19.3042044 C2.73626256,19.4943246 3.02352877,19.5406954 3.24592842,19.4108572 L5.21972532,18.2701357 C6.04909068,18.9842459 7.00355584,19.5360583 8.03678755,19.8977505 L8.03678755,22.1791935 C8.03678755,22.43887 8.21748726,22.6660868 8.47232019,22.7217318 C10.1727509,23.1019723 11.9148814,23.083424 13.5319122,22.7217318 C13.7867452,22.6660868 13.9674449,22.43887 13.9674449,22.1791935 L13.9674449,19.8977505 C14.9960433,19.5314213 15.9505084,18.9796088 16.7845071,18.2701357 L18.758304,19.4108572 C18.985337,19.5406954 19.2679699,19.4989617 19.4440363,19.3042044 C20.5884678,18.0661042 21.4641664,16.5729647 21.9784656,14.9175274 C22.0479655,14.662488 21.9460323,14.3935375 21.7189993,14.2636992 Z M10.9974829,15.2050263 C8.9541861,15.2050263 7.29082205,13.5403149 7.29082205,11.4953629 C7.29082205,9.45041097 8.9541861,7.78569952 10.9974829,7.78569952 C13.0407797,7.78569952 14.7041437,9.45041097 14.7041437,11.4953629 C14.7041437,13.5403149 13.0407797,15.2050263 10.9974829,15.2050263 Z" id="Shape"></path>
            </g>
        </g>
    </g>
</svg>
