<?xml version="1.0" encoding="UTF-8"?>
<svg width="27px" height="26px" viewBox="0 0 27 26" version="1.1" xmlns="http://www.w3.org/2000/svg" xmlns:xlink="http://www.w3.org/1999/xlink">
    <!-- Generator: Sketch 54.1 (76490) - https://sketchapp.com -->
    <title>Combined Shape</title>
    <desc>Created with Sketch.</desc>
    <g id="Page-1" stroke="none" stroke-width="1" fill="none" fill-rule="evenodd">
        <g id="1---Builder-1" transform="translate(-588.000000, -31.000000)" fill="#FFFFFF" fill-rule="nonzero">
            <path d="M600.71997,45.7396198 L589.622365,56.7152063 C589.431532,56.9050889 589.208854,57 588.95433,57 C588.731651,57 588.477188,56.9050889 588.286294,56.7152063 C587.904569,56.3671183 587.904569,55.7658534 588.286294,55.3861486 L599.169573,44.5917492 L596.30705,44.2276074 C595.923223,44.1638476 595.603316,43.8450486 595.507375,43.4625509 C595.443393,43.0482037 595.603316,42.665645 595.955183,42.4425162 L599.601755,40.2430168 L598.866061,36.003387 C598.802079,35.6208893 598.994024,35.2064811 599.345891,35.0152017 C599.729779,34.8239834 600.145627,34.8558328 600.465473,35.1427213 L603.632215,37.9797576 L607.342769,35.9396272 C607.726657,35.7484089 608.174466,35.7802583 608.462351,36.0671468 C608.750237,36.3540354 608.846178,36.7684436 608.686256,37.1509413 L606.990902,41.1036825 L610.061702,44.1000268 C610.349588,44.3869154 610.41357,44.8331729 610.253647,45.1838213 C610.093724,45.5344697 609.709897,45.7575984 609.294048,45.725749 L605.071705,45.2794915 L603.248388,49.1365625 C603.088465,49.4553615 602.768558,49.6784903 602.384731,49.6784903 C602.352771,49.6784903 602.32075,49.6784903 602.28879,49.6784903 C601.872941,49.6466409 601.553034,49.3597523 601.457093,48.9453441 L600.753359,45.885179 L600.71997,45.7396198 Z M607.201225,47.5103432 L608.83169,49.9789084 C609.151358,50.4277161 609.023466,51.0368648 608.575907,51.3253928 C608.38407,51.4215484 608.224236,51.4856725 608.032398,51.4856725 C607.712731,51.4856725 607.425005,51.3574242 607.233168,51.0688962 L605.602703,48.6003311 C605.283035,48.1515234 605.410927,47.5423746 605.858486,47.2538466 C606.306045,46.9332872 606.9135,47.0615355 607.201225,47.5103432 Z M604.196079,35.8088206 C603.652631,35.8088206 603.237014,35.3920442 603.237014,34.8470196 L603.237014,31.9617396 C603.237014,31.4167763 603.65257,31 604.196079,31 C604.739526,31 605.155143,31.4167149 605.155143,31.9617396 L605.155143,34.847081 C605.155143,35.3920442 604.739588,35.8088206 604.196079,35.8088206 Z M614.969875,39.0467528 C615.097766,39.5917774 614.810041,40.1047093 614.266593,40.2009262 L610.430213,41.1947585 C610.334263,41.2267899 610.238375,41.2267899 610.174429,41.2267899 C609.758812,41.2267899 609.343195,40.9702933 609.247307,40.5214856 C609.119416,40.0084923 609.439145,39.4635291 609.95065,39.3352808 L613.786969,38.3414485 C614.298535,38.2132002 614.841983,38.5338209 614.969875,39.0467528 Z M593.070612,39.4314977 C592.559107,39.3352808 592.207436,38.8223489 592.27132,38.3094171 C592.36727,37.7644538 592.878775,37.4118017 593.39028,37.5079572 L596.235592,37.9888577 C596.77904,38.0850746 597.130711,38.5980064 597.034823,39.1109383 C596.938935,39.5918388 596.523318,39.9123982 596.075759,39.9123982 C596.011813,39.9123982 595.97987,39.9123982 595.915925,39.9123982 L593.070612,39.4314977 Z" id="Combined-Shape"></path>
        </g>
    </g>
</svg>