<?xml version="1.0" encoding="UTF-8"?>
<svg width="20px" height="20px" viewBox="0 0 20 20" version="1.1" xmlns="http://www.w3.org/2000/svg" xmlns:xlink="http://www.w3.org/1999/xlink">
    <g id="Artboard" stroke="none" stroke-width="1" fill="none" fill-rule="evenodd">
        <path d="M20,3.87088785 L15.3998598,0.0493925234 L14.1001402,1.5882243 L18.7002336,5.40920561 L20,3.87088785 Z M5.85009346,1.53827103 L4.54981308,0 L0,3.87088785 L1.29971963,5.40915888 L5.85009346,1.53827103 Z M10.5000467,6.10411215 L9,6.10411215 L9,12.0595327 L13.7499533,14.8884579 L14.5,13.6476636 L10.5,11.3150935 L10.5,6.10411215 L10.5000467,6.10411215 Z M10,2.1338785 C5,2.1338785 0.999953271,6.1535514 0.999953271,11.0668692 C0.999953271,15.9803738 5,20 10,20 C14.9502804,20 19.0000467,15.9803738 19.0000467,11.0668692 C19.0000467,6.15359813 14.9502804,2.1338785 10,2.1338785 Z M10,18.0149533 C6.14985981,18.0149533 3,14.8885047 3,11.0669159 C3,7.24556075 6.14985981,4.11906542 10,4.11906542 C13.8501869,4.11906542 17,7.24551402 17,11.0669159 C17,14.9378972 13.8501869,18.0149533 10,18.0149533 Z" id="Shape" fill="currentColor" fill-rule="nonzero"></path>
    </g>
</svg>
