<svg height="35" viewBox="0 0 54 35" width="54" xmlns="http://www.w3.org/2000/svg"><path d="m156.128125 143.729167c0-.145834.024107-.291667.024107-.4375 0-7.899306-6.24375-14.291667-13.945982-14.291667-5.556696 0-10.329911 3.329861-12.571875 8.142361-.976339-.498264-2.073214-.78993-3.230357-.78993-3.555804 0-6.520982 2.661458-7.0875 6.137152-4.266964 1.482639-7.316518 5.602431-7.316518 10.451389 0 6.100695 4.833482 11.059028 10.787946 11.059028h12.354911v-9.722222h-5.809821l9.666964-10.171875 9.666964 10.159722h-5.809821v9.722222h13.295089c5.448214 0 9.847768-4.557291 9.847768-10.135416s-4.423661-10.111112-9.871875-10.123264z" fill="#e30a6c" transform="translate(-112 -129)"/></svg>