<svg height="30" viewBox="0 0 23 30" width="23" xmlns="http://www.w3.org/2000/svg"><path d="m319.125 139h-1.4375v-2.857143c0-4-3.1625-7.142857-7.1875-7.142857s-7.1875 3.142857-7.1875 7.142857v2.857143h-1.4375c-1.58125 0-2.875 1.285714-2.875 2.857143v14.285714c0 1.571429 1.29375 2.857143 2.875 2.857143h17.25c1.58125 0 2.875-1.285714 2.875-2.857143v-14.285714c0-1.571429-1.29375-2.857143-2.875-2.857143zm-9.125 13c-1.65 0-3-1.125-3-2.5s1.35-2.5 3-2.5 3 1.125 3 2.5-1.35 2.5-3 2.5zm5-13h-9v-2.745098c0-2.333333 2.032258-4.254902 4.5-4.254902s4.5 1.921569 4.5 4.254902z" fill="#fff" transform="translate(-299 -129)"/></svg>