<svg height="22" viewBox="0 0 21 22" width="21" xmlns="http://www.w3.org/2000/svg"><path d="m21 11.0002217c0 6.074856-4.7010677 10.9997783-10.4998942 10.9997783-5.799091 0-10.5001058-4.9249223-10.5001058-10.9997783 0-6.07568741 4.7010148-11.0002217 10.5001058-11.0002217 5.7988265 0 10.4998942 4.92453429 10.4998942 11.0002217zm-7.0430188 4.994577c-.0685258-.0903958-.2000781-.1225488-.30988-.0755986-1.2150508.5177871-2.5942793 1.0653909-2.8651076 1.1131755-.0067351-.0053959-.0176103-.0156315-.0318222-.032765-.0367036-.0447807-.0545611-.1032459-.0545611-.1786221 0-.6188635.5189177-2.5013212 1.5418614-5.5950268.8626589-2.5990599.9625743-3.1373182.9625743-3.3159403 0-.2759714-.1172786-.5088866-.3393541-.67404665-.2109531-.1567046-.5056944-.23597475-.8759438-.23597475-.6159907 0-1.3296724.21055265-2.18219763.64361805-.82620241.4198259-1.74750062 1.1308097-2.73837501 2.11320335-.07767081.0769338-.08564182.1920841-.01952585.2773065.06611597.0851668.1890175.1175424.2959153.0784357.3478194-.1277779 2.09606148-.77250855 2.35070064-.9165855.2087905-.1177649.38934265-.17750955.53702225-.17750955.0053141 0 .0097012 0 .0135322.00044505.0019155.008678.0036456.02214.0036456.0414986 0 .1355659-.0311424.29594195-.0919444.4762885-1.48952477 4.3453397-2.21364903 7.0089283-2.21364903 8.1436876 0 .4004672.12358123.7227213.36740701.9580285.24833652.2399244.5833653.3615832.99563229.3615832.4395167 0 .97462353-.1651045 1.63528883-.5052152.6395948-.328985 1.615454-1.0525408 2.9840545-2.2124996.088546-.0752093.103314-.1970906.0347264-.2874865zm-.3238527-12.64232146c-.2455361-.23399896-.5594012-.35247724-.9333735-.35247724-.4654099 0-.8707748.17125128-1.2045719.50905647-.3285026.33206394-.4951831.73980784-.4951831 1.21145928 0 .37265855.1226435.6814096.3647537.9179022.2452247.2399142.5549789.36158205.9206669.36158205.4462254 0 .8494104-.18082 1.1982809-.5375887.3425795-.3504475.5162985-.76225086.5162985-1.22439155 0-.35520287-.1233286-.65310935-.3668715-.88554251z" fill="#f9f9f9"/></svg>