<svg height="26" viewBox="0 0 27 26" width="27" xmlns="http://www.w3.org/2000/svg"><path d="m600.71997 45.7396198-11.097605 10.9755865c-.190833.1898826-.413511.2847937-.668035.2847937-.222679 0-.477142-.0949111-.668036-.2847937-.381725-.348088-.381725-.9493529 0-1.3290577l10.883279-10.7943994-2.862523-.3641418c-.383827-.0637598-.703734-.3825588-.799675-.7650565-.063982-.4143472.095941-.7969059.447808-1.0200347l3.646572-2.1994994-.735694-4.2396298c-.063982-.3824977.127963-.7969059.47983-.9881853.383888-.1912183.799736-.1593689 1.119582.1275196l3.166742 2.8370363 3.710554-2.0401304c.383888-.1912183.831697-.1593689 1.119582.1275196.287886.2868886.383827.7012968.223905 1.0837945l-1.695354 3.9527412 3.0708 2.9963443c.287886.2868886.351868.7331461.191945 1.0837945s-.54375.5737771-.959599.5419277l-4.222343-.4462575-1.823317 3.857071c-.159923.318799-.47983.5419278-.863657.5419278-.03196 0-.063981 0-.095941 0-.415849-.0318494-.735756-.318738-.831697-.7331462l-.703734-3.0601651zm6.481255 1.7707234 1.630465 2.4685652c.319668.4488077.191776 1.0579564-.255783 1.3464844-.191837.0961556-.351671.1602797-.543509.1602797-.319667 0-.607393-.1282483-.79923-.4167763l-1.630465-2.4685651c-.319668-.4488077-.191776-1.0579565.255783-1.3464845.447559-.3205594 1.055014-.1923111 1.342739.2564966zm-3.005146-11.7015226c-.543448 0-.959065-.4167764-.959065-.961801v-2.88528c0-.5449633.415556-.9617396.959065-.9617396.543447 0 .959064.4167149.959064.9617396v2.8853414c0 .5449632-.415555.9617396-.959064.9617396zm10.773796 3.2379322c.127891.5450246-.159834 1.0579565-.703282 1.1541734l-3.83638.9938323c-.09595.0320314-.191838.0320314-.255784.0320314-.415617 0-.831234-.2564966-.927122-.7053043-.127891-.5129933.191838-1.0579565.703343-1.1862048l3.836319-.9938323c.511566-.1282483 1.055014.1923724 1.182906.7053043zm-21.899263.3847449c-.511505-.0962169-.863176-.6091488-.799292-1.1220806.09595-.5449633.607455-.8976154 1.11896-.8014599l2.845312.4809005c.543448.0962169.895119.6091487.799231 1.1220806-.095888.4809005-.511505.8014599-.959064.8014599-.063946 0-.095889 0-.159834 0z" fill="#fff" transform="translate(-588 -31)"/></svg>