<?xml version="1.0" encoding="UTF-8"?>
<svg width="10px" height="11px" viewBox="0 0 10 11" version="1.1" xmlns="http://www.w3.org/2000/svg" xmlns:xlink="http://www.w3.org/1999/xlink">
    <g id="page-info" stroke="none" stroke-width="1" fill="none" fill-rule="evenodd">
        <g id="1a---routes-1d-copy-3" transform="translate(-473.000000, -434.000000)" fill="#FFFFFF" fill-rule="nonzero">
            <g id="trash-a" transform="translate(473.000000, 434.000000)">
                <path d="M7.41477273,1.83333333 L7.41477273,1.00260417 C7.41477273,0.45546875 7.00284091,0 6.43465909,0 L3.5625,0 C2.99715909,0 2.58522727,0.45546875 2.58522727,1.00260417 L2.58522727,1.83333333 L0,1.83333333 L0,2.75 L0.261363636,2.75 C0.261363636,2.75 0.414772727,2.7671875 0.494318182,2.84739583 C0.573863636,2.92760417 0.605113636,3.10520833 0.605113636,3.10520833 L1.14488636,10.0289063 C1.1875,10.8710938 1.1875,11 2.16761364,11 L7.83238636,11 C8.8125,11 8.8125,10.8739583 8.85511364,10.0317708 L9.39488636,3.1109375 C9.39488636,3.1109375 9.42613636,2.93046875 9.50568182,2.85026042 C9.58522727,2.77005208 9.73863636,2.75286458 9.73863636,2.75286458 L10,2.75286458 L10,1.83619792 L7.41477273,1.83619792 L7.41477273,1.83333333 Z M3.33333333,1.08823529 C3.33333333,0.805882353 3.53645833,0.647058824 3.79427083,0.647058824 L6.18229167,0.647058824 C6.44010417,0.647058824 6.66666667,0.808823529 6.66666667,1.08823529 L6.66666667,1.94117647 L3.33333333,1.94117647 L3.33333333,1.08823529 Z M2.88961039,9.05882353 L2.66666667,3.88235294 L3.10606061,3.88235294 L3.33333333,9.05882353 L2.88961039,9.05882353 Z M5.33333333,9.05882353 L4.66666667,9.05882353 L4.66666667,3.88235294 L5.33333333,3.88235294 L5.33333333,9.05882353 Z M7.10822511,9.05882353 L6.66666667,9.05882353 L6.89393939,3.88235294 L7.33333333,3.88235294 L7.10822511,9.05882353 Z" id="Shape"></path>
            </g>
        </g>
    </g>
</svg>
