<?xml version="1.0" encoding="UTF-8"?>
<svg width="906px" height="260px" viewBox="0 0 906 260" version="1.1" xmlns="http://www.w3.org/2000/svg" xmlns:xlink="http://www.w3.org/1999/xlink">
    <!-- Generator: Sketch 54.1 (76490) - https://sketchapp.com -->
    <title>Combined Shape</title>
    <desc>Created with Sketch.</desc>
    <g id="logo" stroke="none" stroke-width="1" fill="none" fill-rule="evenodd">
        <g id="Artboard-Copy-3" transform="translate(-181.000000, -185.000000)" fill="#000000">
            <path d="M411,232.558892 L311.990506,315.54434 L395.186608,414.582148 C395.083121,414.669432 394.979462,414.756587 394.875631,414.843614 C340.020479,460.820814 258.000365,453.391191 211.678578,398.249085 C165.356791,343.10698 172.27445,261.133586 227.129601,215.156386 C281.984753,169.179186 364.004868,176.608809 410.326654,231.750915 C410.552367,232.019606 410.776815,232.288934 411,232.558892 Z M731,444.98882 L606.047047,318.63887 L482,444.072786 L482,186 L731,186 L731,444.98882 Z M784,445 L935,186 L1087,445 L784,445 Z" id="Combined-Shape"></path>
        </g>
    </g>
</svg>